<mxfile host="app.diagrams.net" agent="Mozilla/5.0 (Windows NT 10.0; Win64; x64) AppleWebKit/537.36 (KHTML, like Gecko) Chrome/128.0.0.0 Safari/537.36" version="24.7.16">
  <diagram name="Page-1" id="5f0bae14-7c28-e335-631c-24af17079c00">
    <mxGraphModel grid="1" page="1" gridSize="10" guides="1" tooltips="1" connect="1" arrows="1" fold="1" pageScale="1" pageWidth="1100" pageHeight="850" background="none" math="0" shadow="0">
      <root>
        <mxCell id="0" />
        <mxCell id="1" parent="0" />
        <mxCell id="39150e848f15840c-1" value="App Movil" style="verticalAlign=top;align=left;spacingTop=8;spacingLeft=2;spacingRight=12;shape=cube;size=10;direction=south;fontStyle=4;html=1;rounded=0;shadow=0;comic=0;labelBackgroundColor=none;strokeWidth=1;fontFamily=Verdana;fontSize=12" vertex="1" parent="1">
          <mxGeometry x="50" y="380" width="330" height="360" as="geometry" />
        </mxCell>
        <mxCell id="39150e848f15840c-2" value="Back end" style="verticalAlign=top;align=left;spacingTop=8;spacingLeft=2;spacingRight=12;shape=cube;size=10;direction=south;fontStyle=4;html=1;rounded=0;shadow=0;comic=0;labelBackgroundColor=none;strokeWidth=1;fontFamily=Verdana;fontSize=12" vertex="1" parent="1">
          <mxGeometry x="410" y="380" width="350" height="360" as="geometry" />
        </mxCell>
        <mxCell id="39150e848f15840c-7" value="&lt;div&gt;&amp;lt;&amp;lt;MLL&amp;gt;&amp;gt;&lt;/div&gt;Gemini" style="shape=component;align=left;spacingLeft=36;rounded=0;shadow=0;comic=0;labelBackgroundColor=none;strokeWidth=1;fontFamily=Verdana;fontSize=12;html=1;" vertex="1" parent="1">
          <mxGeometry x="450" y="250" width="120" height="60" as="geometry" />
        </mxCell>
        <mxCell id="uXCfv-k9wZfhDehNV5by-3" value="Busqueda de ejercicios" style="html=1;dropTarget=0;whiteSpace=wrap;" vertex="1" parent="1">
          <mxGeometry x="140" y="585" width="180" height="90" as="geometry" />
        </mxCell>
        <mxCell id="uXCfv-k9wZfhDehNV5by-4" value="" style="shape=module;jettyWidth=8;jettyHeight=4;" vertex="1" parent="uXCfv-k9wZfhDehNV5by-3">
          <mxGeometry x="1" width="20" height="20" relative="1" as="geometry">
            <mxPoint x="-27" y="7" as="offset" />
          </mxGeometry>
        </mxCell>
        <mxCell id="uXCfv-k9wZfhDehNV5by-5" value="&amp;lt;&amp;lt;Base de&amp;nbsp;realacional&amp;gt;&amp;gt;&lt;div&gt;Base de datos usuario&amp;nbsp;&lt;/div&gt;" style="html=1;dropTarget=0;whiteSpace=wrap;" vertex="1" parent="1">
          <mxGeometry x="420" y="780" width="180" height="90" as="geometry" />
        </mxCell>
        <mxCell id="uXCfv-k9wZfhDehNV5by-6" value="" style="shape=module;jettyWidth=8;jettyHeight=4;" vertex="1" parent="uXCfv-k9wZfhDehNV5by-5">
          <mxGeometry x="1" width="20" height="20" relative="1" as="geometry">
            <mxPoint x="-27" y="7" as="offset" />
          </mxGeometry>
        </mxCell>
        <mxCell id="uXCfv-k9wZfhDehNV5by-15" value="" style="edgeStyle=orthogonalEdgeStyle;rounded=0;orthogonalLoop=1;jettySize=auto;html=1;" edge="1" parent="1" source="uXCfv-k9wZfhDehNV5by-7" target="uXCfv-k9wZfhDehNV5by-5">
          <mxGeometry relative="1" as="geometry" />
        </mxCell>
        <mxCell id="uXCfv-k9wZfhDehNV5by-19" value="" style="edgeStyle=orthogonalEdgeStyle;rounded=0;orthogonalLoop=1;jettySize=auto;html=1;" edge="1" parent="1" source="uXCfv-k9wZfhDehNV5by-7" target="uXCfv-k9wZfhDehNV5by-16">
          <mxGeometry relative="1" as="geometry" />
        </mxCell>
        <mxCell id="uXCfv-k9wZfhDehNV5by-7" value="&amp;lt;&amp;lt;API&amp;gt;&amp;gt;&lt;div&gt;API vusqueda de ejercicios&lt;/div&gt;" style="html=1;dropTarget=0;whiteSpace=wrap;" vertex="1" parent="1">
          <mxGeometry x="420" y="585" width="180" height="90" as="geometry" />
        </mxCell>
        <mxCell id="uXCfv-k9wZfhDehNV5by-8" value="" style="shape=module;jettyWidth=8;jettyHeight=4;" vertex="1" parent="uXCfv-k9wZfhDehNV5by-7">
          <mxGeometry x="1" width="20" height="20" relative="1" as="geometry">
            <mxPoint x="-27" y="7" as="offset" />
          </mxGeometry>
        </mxCell>
        <mxCell id="uXCfv-k9wZfhDehNV5by-9" value="&amp;lt;&amp;lt;Base de&amp;nbsp;Vectorial&amp;gt;&amp;gt;&lt;div&gt;Almacena vectores&amp;nbsp;&amp;nbsp;&lt;/div&gt;" style="html=1;dropTarget=0;whiteSpace=wrap;" vertex="1" parent="1">
          <mxGeometry x="810" y="420" width="180" height="90" as="geometry" />
        </mxCell>
        <mxCell id="uXCfv-k9wZfhDehNV5by-10" value="" style="shape=module;jettyWidth=8;jettyHeight=4;" vertex="1" parent="uXCfv-k9wZfhDehNV5by-9">
          <mxGeometry x="1" width="20" height="20" relative="1" as="geometry">
            <mxPoint x="-27" y="7" as="offset" />
          </mxGeometry>
        </mxCell>
        <mxCell id="uXCfv-k9wZfhDehNV5by-13" value="" style="line;strokeWidth=1;fillColor=none;align=left;verticalAlign=middle;spacingTop=-1;spacingLeft=3;spacingRight=3;rotatable=0;labelPosition=right;points=[];portConstraint=eastwest;strokeColor=inherit;" vertex="1" parent="1">
          <mxGeometry x="320" y="626" width="100" height="8" as="geometry" />
        </mxCell>
        <mxCell id="uXCfv-k9wZfhDehNV5by-22" style="edgeStyle=orthogonalEdgeStyle;rounded=0;orthogonalLoop=1;jettySize=auto;html=1;entryX=0.5;entryY=1;entryDx=0;entryDy=0;" edge="1" parent="1" source="uXCfv-k9wZfhDehNV5by-16" target="39150e848f15840c-7">
          <mxGeometry relative="1" as="geometry" />
        </mxCell>
        <mxCell id="uXCfv-k9wZfhDehNV5by-26" style="edgeStyle=orthogonalEdgeStyle;rounded=0;orthogonalLoop=1;jettySize=auto;html=1;" edge="1" parent="1" source="uXCfv-k9wZfhDehNV5by-16" target="uXCfv-k9wZfhDehNV5by-24">
          <mxGeometry relative="1" as="geometry" />
        </mxCell>
        <mxCell id="uXCfv-k9wZfhDehNV5by-16" value="&amp;lt;&amp;lt;API&amp;gt;&amp;gt;&lt;div&gt;API recuperacion de vectores&amp;nbsp;&lt;/div&gt;" style="html=1;dropTarget=0;whiteSpace=wrap;" vertex="1" parent="1">
          <mxGeometry x="420" y="420" width="180" height="90" as="geometry" />
        </mxCell>
        <mxCell id="uXCfv-k9wZfhDehNV5by-17" value="" style="shape=module;jettyWidth=8;jettyHeight=4;" vertex="1" parent="uXCfv-k9wZfhDehNV5by-16">
          <mxGeometry x="1" width="20" height="20" relative="1" as="geometry">
            <mxPoint x="-27" y="7" as="offset" />
          </mxGeometry>
        </mxCell>
        <mxCell id="uXCfv-k9wZfhDehNV5by-20" value="return" style="html=1;verticalAlign=bottom;endArrow=open;dashed=1;endSize=8;curved=0;rounded=0;entryX=1;entryY=0.5;entryDx=0;entryDy=0;exitX=0;exitY=0.5;exitDx=0;exitDy=0;" edge="1" parent="1" source="uXCfv-k9wZfhDehNV5by-9" target="uXCfv-k9wZfhDehNV5by-16">
          <mxGeometry relative="1" as="geometry">
            <mxPoint x="700" y="470" as="sourcePoint" />
            <mxPoint x="620" y="470" as="targetPoint" />
          </mxGeometry>
        </mxCell>
        <mxCell id="uXCfv-k9wZfhDehNV5by-23" value="return" style="html=1;verticalAlign=bottom;endArrow=open;dashed=1;endSize=8;curved=0;rounded=0;exitX=0.75;exitY=1;exitDx=0;exitDy=0;entryX=0.654;entryY=-0.004;entryDx=0;entryDy=0;entryPerimeter=0;" edge="1" parent="1" source="39150e848f15840c-7" target="uXCfv-k9wZfhDehNV5by-16">
          <mxGeometry relative="1" as="geometry">
            <mxPoint x="660" y="470" as="sourcePoint" />
            <mxPoint x="580" y="470" as="targetPoint" />
            <Array as="points">
              <mxPoint x="540" y="370" />
            </Array>
          </mxGeometry>
        </mxCell>
        <mxCell id="uXCfv-k9wZfhDehNV5by-24" value="Presentacion de Rutinas&amp;nbsp;" style="html=1;dropTarget=0;whiteSpace=wrap;" vertex="1" parent="1">
          <mxGeometry x="140" y="420" width="180" height="90" as="geometry" />
        </mxCell>
        <mxCell id="uXCfv-k9wZfhDehNV5by-25" value="" style="shape=module;jettyWidth=8;jettyHeight=4;" vertex="1" parent="uXCfv-k9wZfhDehNV5by-24">
          <mxGeometry x="1" width="20" height="20" relative="1" as="geometry">
            <mxPoint x="-27" y="7" as="offset" />
          </mxGeometry>
        </mxCell>
      </root>
    </mxGraphModel>
  </diagram>
</mxfile>
